<?xml version="1.0" encoding="UTF-8" standalone="no"?>
<!-- Created with Inkscape (http://www.inkscape.org/) -->

<svg
   xmlns:dc="http://purl.org/dc/elements/1.1/"
   xmlns:cc="http://creativecommons.org/ns#"
   xmlns:rdf="http://www.w3.org/1999/02/22-rdf-syntax-ns#"
   xmlns:svg="http://www.w3.org/2000/svg"
   xmlns="http://www.w3.org/2000/svg"
   version="1.1"
   width="100"
   height="100"
   id="svg2">
  <defs
     id="defs4" />
  <metadata
     id="metadata7">
    <rdf:RDF>
      <cc:Work
         rdf:about="">
        <dc:format>image/svg+xml</dc:format>
        <dc:type
           rdf:resource="http://purl.org/dc/dcmitype/StillImage" />
        <dc:title></dc:title>
      </cc:Work>
    </rdf:RDF>
  </metadata>
  <g
     transform="translate(0,-952.36218)"
     id="layer1">
    <path
       d="m 103.21429,50.892857 a 49.82143,48.392857 0 1 1 -99.6428636,0 49.82143,48.392857 0 1 1 99.6428636,0 z"
       transform="matrix(1.0035842,0,0,1.0332104,-3.584227,949.77915)"
       id="path2985"
       style="fill:#000000;fill-opacity:1;stroke:none" />
    <path
       d="m 103.21429,50.892857 a 49.82143,48.392857 0 1 1 -99.6428636,0 49.82143,48.392857 0 1 1 99.6428636,0 z"
       transform="matrix(0.90322578,0,0,0.92988935,1.7741956,955.03746)"
       id="path2985-1"
       style="fill:#ffffff;fill-opacity:1;stroke:none" />
    <path
       d="m 103.21429,50.892857 a 49.82143,48.392857 0 1 1 -99.6428636,0 49.82143,48.392857 0 1 1 99.6428636,0 z"
       transform="matrix(0.50179215,0,0,0.51660525,23.207886,976.07066)"
       id="path2985-1-7"
       style="fill:#000000;fill-opacity:1;stroke:none" />
  </g>
</svg>
